<?xml version="1.0" encoding="UTF-8" standalone="no"?>
<svg
   width="1125"
   height="276"
   viewBox="0 0 2250 552"
   version="1.1"
   xml:space="preserve"
   id="SVGRoot"
   inkscape:version="1.4.2 (f4327f4, 2025-05-13)"
   sodipodi:docname="hnLogo.svg"
   xmlns:inkscape="http://www.inkscape.org/namespaces/inkscape"
   xmlns:sodipodi="http://sodipodi.sourceforge.net/DTD/sodipodi-0.dtd"
   xmlns="http://www.w3.org/2000/svg"
   xmlns:svg="http://www.w3.org/2000/svg"><defs
   id="defs3"><filter
     inkscape:collect="always"
     style="color-interpolation-filters:sRGB"
     id="filter2"
     x="-0.11386861"
     y="-0.12608892"
     width="1.2277372"
     height="1.2521778"><feGaussianBlur
       inkscape:collect="always"
       stdDeviation="23.161831"
       id="feGaussianBlur2" /></filter></defs>
<sodipodi:namedview
   pagecolor="#a9a9a9"
   bordercolor="#292929"
   borderopacity="1"
   inkscape:showpageshadow="false"
   inkscape:pageopacity="0.0"
   inkscape:pagecheckerboard="true"
   inkscape:deskcolor="#232323"
   id="namedview1"
   inkscape:zoom="0.70710678"
   inkscape:cx="635.689"
   inkscape:cy="255.97265"
   inkscape:window-width="1702"
   inkscape:window-height="1360"
   inkscape:window-x="0"
   inkscape:window-y="0"
   inkscape:window-maximized="0"
   inkscape:current-layer="g2"
   showguides="true"
   showborder="false"
   borderlayer="false"
   inkscape:antialias-rendering="false"><sodipodi:guide
     position="485.07525,510.98781"
     orientation="0,-1"
     id="guide3"
     inkscape:locked="false" /><sodipodi:guide
     position="530.33009,69.753175"
     orientation="0,-1"
     id="guide4"
     inkscape:locked="false" /><sodipodi:guide
     position="755.19004,376.63752"
     orientation="1,0"
     id="guide5"
     inkscape:locked="false" /><sodipodi:guide
     position="2235.8716,297.44156"
     orientation="1,0"
     id="guide6"
     inkscape:locked="false" /></sodipodi:namedview>
<style
   type="text/css"
   id="style1">
g.prefab path {
  vector-effect:non-scaling-stroke;
  -inkscape-stroke:hairline;
  fill: none;
  fill-opacity: 1;
  stroke-opacity: 1;
  stroke: #00349c;
}
</style>

<g
   id="g1"
   inkscape:label="logo-icon"><path
     id="path4-2"
     clip-path="none"
     style="display:inline;opacity:0.463158;mix-blend-mode:normal;fill:#000000;fill-opacity:1;stroke:#000000;stroke-width:0;stroke-dasharray:none;stroke-opacity:1;filter:url(#filter2)"
     d="M 300.36223,55.588394 C 192.46917,78.472804 115.29978,165.72645 115.29973,276.01975 c -8.9e-4,110.29403 77.16872,197.55069 185.0625,220.43526 V 342.92014 H 418.41739 V 496.45501 C 526.31047,473.5706 603.47986,386.31695 603.47989,276.02365 603.4817,165.72889 526.3119,78.473114 418.41739,55.588394 V 209.12326 H 300.36223 Z"
     sodipodi:nodetypes="ccccccccccc"
     inkscape:label="그림자" /><path
     id="path4"
     clip-path="none"
     style="display:inline;opacity:1;fill:#5b5b5b;fill-opacity:1;stroke:#ffffff;stroke-width:0;stroke-dasharray:none;stroke-opacity:1"
     d="M 266.73491,41.547534 C 158.84185,64.431944 81.67246,151.68559 81.67241,261.97889 c -8.9e-4,110.29403 77.16872,197.55069 185.0625,220.43526 V 328.87928 H 384.79007 V 482.41415 C 492.68315,459.52974 569.85254,372.27609 569.85257,261.98279 569.85438,151.68803 492.68458,64.432254 384.79007,41.547534 V 195.0824 H 266.73491 Z"
     sodipodi:nodetypes="ccccccccccc"
     inkscape:label="검정 테두리" /><path
     id="path17"
     style="display:inline;opacity:1;fill:#f0f0f0;fill-opacity:1;stroke:#000000;stroke-width:0;stroke-linejoin:miter;stroke-miterlimit:50;stroke-dasharray:none"
     d="M 255.00444,65.188154 C 162.79696,90.523504 98.891359,166.35605 98.891159,261.98084 c 2e-4,95.62479 63.905801,171.45734 156.113281,196.79269 V 317.97498 H 395.54399 V 458.77353 C 487.75147,433.43818 551.65707,357.60563 551.65727,261.98084 551.65707,166.35605 487.75147,90.523504 395.54399,65.188154 V 205.9867 H 255.00444 Z"
     sodipodi:nodetypes="ccccccccccc"
     inkscape:label="하얀색 칠" /><path
     style="display:inline;opacity:1;fill:#f00000;fill-opacity:1;stroke:#5b5a5a;stroke-width:9.778;stroke-linejoin:miter;stroke-miterlimit:50;stroke-dasharray:none;stroke-opacity:1"
     d="M 266.73491,52.454064 38.46812,458.47725 248.41398,183.47621 384.79007,471.91661 597.77497,71.092124 401.41742,339.34449 Z"
     id="path16"
     sodipodi:nodetypes="ccccccc"
     inkscape:label="N" /><rect
     style="opacity:1;fill:#5b5b5b;fill-opacity:1;stroke:#ffffff;stroke-width:0;stroke-miterlimit:50;stroke-opacity:1"
     id="rect1-4"
     width="141"
     height="133.79689"
     x="254.7735"
     y="195.0824"
     ry="0"
     inkscape:label="가운데 테두리" /><rect
     style="display:inline;fill:#f0f0f0;stroke:#000000;stroke-width:0;stroke-miterlimit:50"
     id="rect1"
     width="161.00034"
     height="111.52777"
     x="244.77386"
     y="206.22064"
     inkscape:label="가운데 하양이" /><path
     style="display:inline;opacity:1;fill:#000000;stroke-width:0.708324"
     d="M 97.152809,344.12674 93.28598,334.08981 c -1.9505,-5.06281 -3.73385,-12.46418 -4.86768,-16.94324 -1.13382,-4.47908 -2.69641,-11.63169 -3.47242,-16.11076 -0.77601,-4.47906 -1.57869,-11.45789 -2.06364,-15.35274 -0.49462,-3.97255 -1.21146,-14.3684 -1.19817,-24.10117 0.0165,-12.10637 0.69843,-20.13782 1.53488,-26.50304 0.6593,-5.01714 1.89981,-13.19648 2.87126,-18.17631 0.97147,-4.97984 3.04263,-13.1155 4.5644,-18.3084 1.52176,-5.19291 4.588739,-13.95891 6.777289,-19.40362 2.18857,-5.4447 5.916691,-13.86125 8.552081,-18.93263 2.63539,-5.07137 6.80016,-12.27043 9.21686,-16.1125 2.41667,-3.84207 7.19197,-10.7216 10.45898,-15.0587 3.26699,-4.33712 9.04177,-11.23902 12.94742,-15.56673 3.90563,-4.32774 10.24047,-10.76644 14.26839,-14.384636 4.02793,-3.61818 10.2554,-8.86561 13.76245,-11.58456 3.50705,-2.71895 9.59681,-7.18017 13.4946,-9.79923 3.89779,-2.61905 10.44086,-6.67128 14.69296,-9.11951 4.25209,-2.44826 11.0334,-5.91943 15.03138,-7.79013 3.99797,-1.87069 10.23908,-4.69089 13.67813,-6.11432 3.43906,-1.42345 10.59452,-4.04525 16.24478,-5.90263 5.65026,-1.85738 18.54436,-5.38076 18.54436,-5.38076 l 8.67235,-1.97396 72.09559,153.627326 45.71064,-0.0195 -0.007,-153.470326 c 0,0 5.66744,1.17632 10.84736,2.50602 5.17994,1.3297 12.81464,3.58906 17.10103,5.0208 4.28641,1.43172 11.30053,4.05353 15.58693,5.79919 4.2864,1.74569 12.00444,5.14451 17.07019,7.68803 5.06575,2.54349 12.41907,6.62292 16.52976,9.09239 4.11071,2.46945 10.66867,6.81744 14.54626,9.58115 3.8776,2.76371 10.46754,7.79345 14.50927,11.15018 4.04174,3.35672 10.48923,9.264336 14.43578,13.209066 3.94657,3.94473 9.57788,9.98489 12.51407,13.47658 2.93617,3.49169 6.30231,7.74757 7.58835,9.40348 1.28603,1.65591 4.40677,6.21252 7.10514,9.96926 l 4.61219,7.0911 96.68515,-132.150476 -83.438,157.053646 3.90036,9.19437 c 2.18027,5.13957 4.81375,13.332 6.21653,17.98805 1.40277,4.65606 3.55628,13.03828 4.69008,18.70356 1.1338,5.66527 2.5182,14.71229 3.16344,20.16506 0.75579,6.38691 1.41626,15.41276 1.41626,25.44933 0,10.04992 -0.66,19.0981 -1.41779,25.4935 -0.64609,5.45279 -1.90085,13.92803 -2.86938,18.75288 -0.96855,4.82483 -2.72791,12.12181 -3.9097,16.37754 -1.1818,4.25573 -3.27153,10.76018 -4.58987,14.40033 -1.31831,3.64015 -3.26347,8.66078 -4.29556,11.12994 -1.03207,2.46918 -3.72859,8.54325 -6.20831,13.47094 -2.47972,4.92772 -6.3926,11.84601 -8.59487,15.48696 -2.20227,3.64096 -6.38089,9.95891 -9.35249,14.0485 -2.97159,4.08958 -8.13069,10.65544 -11.48494,14.55029 -3.35423,3.89483 -9.85493,10.835 -14.5405,15.36859 -4.68556,4.53361 -11.78062,10.61505 -15.63177,13.67641 -3.85115,3.06135 -10.3483,7.89352 -14.43811,10.65711 -4.08982,2.76359 -10.32436,6.68059 -13.77349,8.70443 -3.44913,2.02385 -9.26093,5.12426 -13.05015,7.02487 -3.78922,1.9006 -10.23518,4.84864 -14.29734,6.5782 -4.06217,1.72955 -11.23372,4.52816 -15.9098,6.16514 -4.67607,1.63695 -13.53052,4.17409 -19.75024,5.91799 l -11.27036,2.74285 -72.75581,-153.6702 -44.99796,-0.001 -0.0711,153.54287 c 0,0 -4.72013,-1.02607 -9.47082,-2.22288 -4.7507,-1.1968 -12.18801,-3.34157 -16.95707,-4.89029 -4.76906,-1.54873 -12.7179,-4.45665 -17.48267,-6.41429 -4.76478,-1.95765 -12.9528,-5.73531 -18.272,-8.43302 -5.31919,-2.69771 -13.74696,-7.472 -18.57557,-10.49499 -4.82862,-3.02302 -12.57135,-8.38967 -17.24425,-11.96413 -4.67292,-3.57448 -11.76895,-9.49995 -15.95993,-13.32053 -4.191,-3.82057 -10.54085,-10.32069 -14.07261,-14.21553 -3.53176,-3.89483 -9.1482,-10.49622 -12.54043,-14.97528 -3.39224,-4.47909 -8.18734,-11.48512 -10.71092,-15.47351 -2.52355,-3.98841 -4.82781,-7.88357 -4.82781,-7.88357 L 0,516.93154 Z M 561.52441,128.88755 400.51993,348.94266 l -9.42356,-20.06277 -68.53201,-0.007 62.48868,132.10749 z m -306.73126,188.87774 141.89523,-0.006 5.6529,12.06517 122.86273,-167.84803 c 0,0 -2.05408,-3.5716 -4.44333,-7.26884 -2.38927,-3.69721 -6.25528,-9.27936 -8.61502,-12.39524 -2.35974,-3.11587 -7.2396,-9.06495 -10.87756,-13.19631 -3.63796,-4.13135 -10.04671,-10.57757 -14.23212,-14.32015 -4.18539,-3.74258 -10.56747,-9.03795 -14.17761,-11.80569 -3.61011,-2.76773 -10.25942,-7.409176 -14.79053,-10.304766 -4.53111,-2.8956 -12.83198,-7.66527 -18.52412,-10.54128 -5.69214,-2.876 -14.8626,-6.96583 -20.31802,-9.10873 -5.45541,-2.1429 -12.68895,-4.61798 -16.05751,-5.63338 -3.36857,-1.0154 -7.62867,-2.22583 -7.62867,-2.22583 l 0.23329,141.043966 -142.01588,-0.01 -6.32998,-13.39071 -125.09481,163.82731 c 0,0 2.67954,4.86522 4.12464,7.23572 2.78099,4.56188 6.23915,9.92944 8.74115,13.4348 2.502,3.50534 7.32644,9.71686 10.73054,13.73654 3.40411,4.01967 9.23953,10.21027 12.96765,13.78555 3.7281,3.57528 9.14913,8.4251 12.0645,10.80347 2.91536,2.37835 8.14198,6.54926 11.74975,9.14712 3.60778,2.59785 9.506,6.51495 13.10717,8.70463 3.60119,2.18969 10.8517,6.14022 16.11229,8.77898 5.26059,2.63871 12.91235,6.13304 17.00391,7.76516 4.09157,1.63212 11.10567,4.18489 15.58691,5.67282 4.48125,1.48794 10.48259,3.07496 10.48259,3.07496 z m 155.582,136.41588 c 4.48123,-1.55636 11.47528,-4.26385 15.54709,-5.99755 4.07181,-1.73368 9.84658,-4.44943 12.90248,-5.98516 3.0559,-1.53575 9.07413,-4.77038 13.24693,-7.25707 4.17281,-2.48669 10.46879,-6.57857 14.02926,-9.04534 3.56047,-2.46676 9.65552,-7.10354 13.54549,-10.3165 3.88998,-3.21299 11.50396,-10.10352 16.73084,-15.47437 5.22691,-5.37083 12.11348,-13.58607 15.49161,-18.08148 3.37814,-4.49541 8.2444,-11.60617 10.833,-15.859 2.58861,-4.25283 6.12842,-10.62817 7.86838,-14.07542 1.73995,-3.44727 4.562,-9.57844 6.25096,-13.72613 1.68894,-4.14769 4.21932,-11.10888 5.58867,-15.3932 1.36936,-4.28432 3.31254,-11.48049 4.30529,-15.95955 0.99277,-4.47907 2.0435,-10.2515 2.43853,-12.78313 0.39506,-2.53165 1.0449,-7.5891 1.45842,-11.26743 0.41354,-3.67834 1.0211,-13.10398 1.02291,-20.92119 0.002,-7.81722 -0.61991,-17.24679 -1.0305,-20.94115 -0.39955,-3.81587 -1.14064,-9.66731 -1.78577,-13.43338 -0.62938,-3.67408 -1.97135,-10.37195 -3.08225,-14.85102 -1.11091,-4.47906 -2.53391,-9.34511 -4.01204,-13.96166 -0.7713,-2.40895 -2.51306,-7.17355 -2.51306,-7.17355 L 397.61543,458.19995 c 0,0 1.7144,-0.49262 2.56696,-0.75437 3.41046,-1.0471 5.71151,-1.70803 10.19276,-3.26441 z m -160.98926,-280.07299 9.92351,20.97878 h 69.00033 L 266.30929,63.114484 76.97183,399.98317 Z m 4.42575,-108.532056 c 0,0 -6.2633,1.70426 -12.86223,3.97062 -6.59893,2.26634 -16.68421,6.3421 -21.68986,8.60928 -5.00566,2.26719 -12.68934,6.17714 -17.3422,8.84153 -4.65289,2.66441 -11.27876,6.8327 -14.72418,9.14827 -3.44542,2.31557 -9.50871,6.792726 -13.55037,9.987406 -4.04166,3.1947 -11.89647,10.08422 -17.37877,15.57744 -5.48229,5.49322 -11.89666,12.94635 -14.52151,16.25697 -2.62485,3.31061 -7.23825,9.58715 -10.09922,13.87148 -2.86097,4.28432 -6.62742,10.56396 -8.52267,14.06931 -1.89525,3.50535 -4.92338,9.60531 -6.76741,13.59366 -1.844,3.98834 -4.67771,11.03031 -6.25892,15.61063 -1.58119,4.58029 -3.77147,11.95817 -4.90543,16.2425 -1.13398,4.28433 -2.69942,11.51996 -3.47873,16.19377 -0.77933,4.67382 -1.729621,12.67487 -2.188151,17.93291 -0.4986,5.71753 -0.79439,14.63824 -0.54991,22.47339 0.22483,7.20546 0.94776,15.99701 1.377381,19.30763 0.42959,3.31061 1.53136,10.515 2.67753,16.16252 1.14619,5.64753 1.89021,8.27038 2.60086,10.96487 0.83056,3.14917 2.83701,9.61607 2.83701,9.61607 z"
     id="path3"
     sodipodi:nodetypes="csssssssssssssssssssscccccssssssssssscccssssssssssssssssssssssccccsssssssssscccccccccccccssssssssscccccssssssssssscsssssssssssssssscsssccssccccccccssssssssssssssssssc" /></g><g
   id="g2"
   inkscape:label="logo-font"><text
     xml:space="preserve"
     style="font-style:normal;font-variant:normal;font-weight:normal;font-stretch:normal;font-size:345.263px;font-family:'Segoe Fluent Icons';-inkscape-font-specification:'Segoe Fluent Icons';text-align:start;letter-spacing:66px;writing-mode:lr-tb;direction:ltr;text-anchor:start;fill:#000000;fill-opacity:1;stroke:#ffffff;stroke-width:0;stroke-miterlimit:50"
     x="729.44977"
     y="295.20444"
     id="text1"
     inkscape:label="text1"
     transform="scale(0.99594759,1.0040689)"><tspan
       sodipodi:role="line"
       id="tspan1"
       style="font-style:normal;font-variant:normal;font-weight:normal;font-stretch:normal;font-size:345.263px;font-family:'Noto Sans KR';-inkscape-font-specification:'Noto Sans KR';letter-spacing:66px;fill:#000000;fill-opacity:1;stroke-width:0"
       x="729.44977"
       y="295.20444">Hannet</tspan></text><text
     xml:space="preserve"
     style="font-style:normal;font-variant:normal;font-weight:normal;font-stretch:normal;font-size:128px;font-family:'Noto Sans KR';-inkscape-font-specification:'Noto Sans KR';text-align:start;letter-spacing:80px;writing-mode:lr-tb;direction:ltr;text-anchor:start;fill:#000000;fill-opacity:1;stroke:#ffffff;stroke-width:0;stroke-miterlimit:50"
     x="748.92896"
     y="471.71573"
     id="text3"><tspan
       sodipodi:role="line"
       id="tspan3"
       style="font-size:128px;letter-spacing:80px;stroke-width:0"
       x="748.92896"
       y="471.71573">한넷데이타시스템</tspan></text></g></svg>
